# xmcd CD database file
#
# Track frame offsets:
#	150
#	18110
#	36460
#	50640
#	76050
#	98035
#	114860
#	133295
#	147945
#	160825
#
# Disc length: 2400 seconds
#
# Revision: 0
# Processed by: cddbd v1.5.2PL0 Copyright (c) Steve Scherf et al.
# Submitted via: CdAid (MTCDDB.DLL V2003.12.21)
#
DISCID=7c095e0a
DTITLE=Raimundo José - Cabo Verde Amarelo
DYEAR=2000
DGENRE=Pop
TTITLE0=Dedês
TTITLE1=Cordão
TTITLE2=Estás Fora do Baralho
TTITLE3=O Negro
TTITLE4=Pesadelo na Coladeira
TTITLE5=Arca Azul
TTITLE6=Prazer em te Ver
TTITLE7=Bom Dia Café
TTITLE8=O Troco
TTITLE9=Não Vá Coração
EXTD=ID3G:  13 YEAR: 2000
EXTT0=
EXTT1=
EXTT2=
EXTT3=
EXTT4=
EXTT5=
EXTT6=
EXTT7=
EXTT8=
EXTT9=
PLAYORDER=
